<svg width="310" height="343" viewBox="0 0 310 343" fill="none" xmlns="http://www.w3.org/2000/svg">
<path d="M293.367 35.2589C295.376 39.8345 293.653 46.0735 288.466 53.574C283.302 61.0414 274.808 69.603 263.62 78.7178C241.252 96.9422 208.208 117.305 169.79 135.475C131.373 153.645 94.8857 166.167 66.958 171.73C52.9903 174.513 41.1916 175.549 32.3735 174.694C23.5162 173.836 17.849 171.092 15.8399 166.517C13.8308 161.941 15.5537 155.702 20.7408 148.202C25.9049 140.734 34.3991 132.173 45.5864 123.058C67.9547 104.833 100.999 84.4705 139.416 66.3007C177.834 48.1309 214.321 35.6087 242.249 30.0454C256.216 27.2629 268.015 26.227 276.833 27.0813C285.69 27.9395 291.358 30.6833 293.367 35.2589Z" stroke="#D2D2D2"/>
<path d="M50.4981 92.5234L50.4287 88.0239L63.0428 95.3304" stroke="#DBDBDB"/>
<path d="M57.9123 86.9086C53.1021 86.1161 51.5978 84.6113 52.7819 78.4866C56.0161 75.9804 57.56 75.9006 59.781 78.3788C61.7467 81.1991 62.4853 83.7799 63.4501 89.3235C66.4464 84.9571 67.3974 82.539 67.7801 78.2555M89.0695 64.4257L90.4769 58.4033L98.6377 68.7787" stroke="#DBDBDB"/>
<path d="M76.3267 113.628L92.7631 109.374L99.8008 111.766L119.814 112.457L178.791 110.548L189.144 100.888L195.805 111.286L192.367 115.34L193.944 120.316L195.56 160.296L198.706 169.748L196.837 178.278L195.43 184.301L195.123 196.807L192.338 178.348L193.076 161.334L190.89 116.863L184.891 116.955" stroke="#DBDBDB"/>
<path d="M184.89 116.955L180.845 114.017L99.362 115.773L91.4015 118.396L76.8262 113.62" stroke="#DBDBDB"/>
<path d="M141.575 64.1164C136.613 63.2469 134.737 62.0223 136.444 55.6944C140.945 54.0825 142.877 55.0215 145.497 59.0553C145.628 62.8951 145.991 64.9237 146.643 68.5388L152.504 59.4474M197.196 71.7603C196.142 68.514 196.379 67.04 201.111 66.1993C203.894 68.6737 204.543 70.1471 201.219 73.1985C204.517 72.0821 206.32 71.6557 208.741 74.5827C209.958 78.574 209.208 79.8621 205.834 80.6282L201.334 80.6976M214.073 128.507L209.789 142.575L220.788 142.405" stroke="#DBDBDB"/>
<path d="M214.58 128.999L216.373 147.974" stroke="#DBDBDB"/>
<path d="M22.5761 93.677C25.9423 120.859 33.1541 131.49 53.8507 143.701C73.9759 153.658 85.5798 159.16 130.158 163.027C141.253 163.836 147.229 164.83 156.27 170.126C161.993 183.582 160.852 192.147 160.34 207.067C161.532 234.387 166.902 243.471 172.055 253.392C177.209 263.314 179.151 268.681 183.385 274.72C183.11 295.114 183.979 304.212 187.024 316.169C190.292 329.312 193.777 334.388 202.885 339.428C211.751 340.756 215.028 339.071 217.252 330.705C219.197 325.354 220.912 308.646 221.882 306.631C222.851 304.616 228.765 299.024 230.719 295.993C232.672 292.963 232.775 266.484 234.186 261.436C236.793 251.678 243.331 238.292 243.772 238.562C244.213 238.832 252 203.817 247.99 183.714C245.606 172.532 244.622 166.064 240.56 155.825C242.836 126.108 244.033 109.46 239.404 80.8341C235.027 63.0808 229.535 56.4351 215.414 49.2C190.692 41.6025 175.642 40.9023 148.283 41.2336C115.671 40.7976 97.6644 42.9124 65.9314 51.5038C49.713 57.9223 43.8033 62.5091 34.228 70.9947M34.228 70.9947C29.8446 76.739 24.0528 92.154 24.0528 92.154L18.6459 98.2371C12.9713 99.821 10.2527 99.5098 6.60884 95.9224C3.49972 91.0559 2.78315 87.8391 3.87798 80.9627C6.96948 71.0003 9.23108 65.8252 16.0375 58.7727C20.7285 55.5997 23.5472 54.7398 28.9897 55.5727C33.6974 60.2288 34.0725 64.0017 34.228 70.9947ZM7.53181 90.9075C9.84683 94.3511 11.3866 95.7119 15.108 95.7914M8.47005 86.8926C12.568 90.5878 15.066 91.5992 20.0303 90.7149M9.36206 79.878C13.2973 84.9385 16.1043 86.4553 22.4607 86.1769M9.2773 74.3787C12.4933 79.1966 15.3691 81.0181 24.8756 80.6391M11.2154 70.3483C19.2184 70.9138 21.9439 72.5248 25.8062 76.1242M14.6534 66.2949C22.0383 67.0859 24.8923 68.9093 28.275 74.0859M16.0914 62.2722C24.3355 62.4516 27.0763 64.2555 29.7055 69.5633M18.545 59.2341C24.3424 58.3755 27.1814 58.7824 30.1207 64.0563M168.468 150.435C156.664 139.207 139.007 144.741 114.782 138.76C94.2016 135.267 83.9514 131.798 67.0486 123.994C45.3706 110.905 38.4844 101.942 47.8575 79.2847C59.3491 67.2355 66.2453 61.4686 81.5298 57.7633C117.442 51.9633 137.714 50.2864 174.473 53.3305C188.939 54.2944 200.834 58.4176 209.651 64.6138M168.468 150.435C176.036 157.633 177.528 161.449 178.352 175.285C176.04 198.177 176.357 210.969 179.254 233.778C179.254 233.778 185.976 248.176 192.253 266.082C198.53 283.987 196.336 297.839 199.546 317.475C203.751 322.866 205.551 321.48 208.545 317.337C208.545 317.337 217.79 300.692 219.12 289.671C220.45 278.649 221.237 273.346 221.188 261.636C223.351 243.511 229.779 235 236.031 218.901C242.284 202.803 233.256 173.788 224.415 146.572C224.617 123.631 229.398 112.991 227.083 92.5244C225.845 81.5831 219.778 71.7309 209.651 64.6138M168.468 150.435L209.651 64.6138" stroke="#DBDBDB"/>
<path d="M227.257 205.313L217.289 207.466L217.381 213.466C225.209 213.302 226.778 214.555 227.45 217.811C226.565 221.621 225.234 222.416 222.02 222.395L217.482 219.965M210.546 289.08C204.406 292.973 201.5 295.751 201.309 306.224C203.313 313.303 205.753 313.494 210.893 311.577C211.475 305.77 210.869 303.406 206.747 302.14M179.525 223.05L187.57 225.927L184.832 242.971" stroke="#DBDBDB"/>
</svg>
